<svg style="object-fit:cover" id="my-svg" version="1" baseProfile="full" width="100%" height="100%" viewBox="0 0 1661 793" xmlns="http://www.w3.org/2000/svg"><rect width="1661" height="793" fill="#000"/><defs><linearGradient id="linear-gradient" x1="0" x2="1" y1="0" y2="0"><stop offset="0%" stop-color="#c81d1190"/><stop offset="100%" stop-color="#1c39bb90"/></linearGradient></defs><path transform="scale(1, 1)" style="transform-origin:center" d="M 0,793 V 0,237 C 122.0773809523809,247.57142857142856 244.1547619047618,258.1428571428571 390,252 C 535.8452380952382,245.85714285714286 705.4583333333334,223.00000000000003 845,211 C 984.5416666666666,198.99999999999997 1094.0119047619048,197.85714285714286 1225,204 C 1355.9880952380952,210.14285714285714 1508.4940476190477,223.57142857142856 1661,237 C 1661,237 1661,793 1661,793 Z" stroke="none" stroke-width="0" fill="url(#linear-gradient)" class="transition-all duration-300 ease-in-out delay-150"/><defs><linearGradient id="linear-gradient" x1="0" x2="1" y1="0" y2="0"><stop offset="0%" stop-color="#c81d11ff"/><stop offset="100%" stop-color="#1c39bbff"/></linearGradient></defs><path transform="scale(1, 1)" style="transform-origin:center" d="M 0,793 V 0,356 C 163.72023809523813,332.92857142857144 327.44047619047626,309.85714285714283 453,339 C 578.5595238095237,368.14285714285717 665.9583333333333,449.5 779,444 C 892.0416666666667,438.5 1030.7261904761906,346.14285714285717 1182,317 C 1333.2738095238094,287.85714285714283 1497.1369047619046,321.92857142857144 1661,356 C 1661,356 1661,793 1661,793 Z" stroke="none" stroke-width="0" fill="url(#linear-gradient)" class="transition-all duration-300 ease-in-out delay-150"/></svg>